<svg width="1612" height="549" viewBox="0 0 1612 549" fill="none" xmlns="http://www.w3.org/2000/svg">
<path fill-rule="evenodd" clip-rule="evenodd" d="M1432.1 546.523C1392.57 546.523 1357.69 538.55 1327.45 522.605C1297.44 506.435 1273.87 484.313 1256.72 456.24C1239.82 427.942 1231.36 395.602 1231.36 359.22C1231.36 319.468 1239.7 284.882 1256.37 255.462C1273.03 226.041 1296.01 203.246 1325.3 187.076C1354.59 170.682 1388.29 162.484 1426.38 162.484C1466.87 162.484 1500.11 170.6 1528.45 188.567C1556.79 206.534 1578.9 232.667 1592.47 265.231C1606.05 297.796 1610.81 348.95 1606.76 392.968H1344.4C1344.4 410.037 1373.42 446.733 1423.95 446.733C1454.85 446.733 1483.87 436.402 1498.76 423.732L1578.17 482.538C1566.12 496.824 1551.6 508.944 1534.61 518.899C1503.42 537.315 1469.25 546.523 1432.1 546.523ZM1347.3 301.599H1492.22C1492.22 289.177 1465.38 258.123 1418.42 258.123C1371.45 258.123 1347.3 289.177 1347.3 301.599Z" fill="#41DEAC"/>
<path d="M739.562 177.198V534.05H613.656V206.182L739.562 177.198Z" fill="#41DEAC"/>
<path d="M419.32 162.706L299.371 191.69V534.05H419.32V395.506C419.32 317.028 449.489 276.788 561.226 276.788V156.446C560.29 155.51 544.605 155.128 536.88 155.055C446.243 155.055 420.742 228.094 419.32 250.122V162.706Z" fill="#41DEAC"/>
<path d="M190.51 534.05L181.976 290.771H253.947V203.348L0 174.36V290.771H71.0438L62.5096 534.05H190.51Z" fill="#41DEAC"/>
<path fill-rule="evenodd" clip-rule="evenodd" d="M923.417 534.054V507.161C943.75 530.567 982.355 545.187 1018.83 545.187C1044.34 545.187 1067.99 540.318 1089.78 530.579C1112.04 520.377 1131.29 506.697 1147.52 489.538C1163.75 472.38 1176.27 452.207 1185.08 429.019C1194.36 405.832 1199 381.022 1199 354.588C1199 328.619 1194.59 304.272 1185.78 281.549C1176.97 258.361 1164.68 238.42 1148.91 221.725C1133.61 204.567 1114.83 191.118 1092.57 181.38C1070.77 171.177 1046.66 166.076 1020.22 166.076C982.677 166.076 950.408 177.126 923.417 199.226V0.167908L797.51 29.152V534.054H923.417ZM996.593 434.927C1040.61 434.927 1076.3 399.242 1076.3 355.221C1076.3 311.201 1040.61 275.515 996.593 275.515C952.572 275.515 916.887 311.201 916.887 355.221C916.887 399.242 952.572 434.927 996.593 434.927Z" fill="#41DEAC"/>
<path d="M58.4515 74.3719L76.9996 169.098L178.109 158.719L193.872 38.6524L58.4515 74.3719Z" fill="#F8680E"/>
<path d="M605.309 83.6471C605.309 73.9085 607.164 64.8655 610.874 56.5181C614.584 47.7069 619.685 40.0551 626.177 33.5627C632.67 27.0703 640.09 21.9691 648.437 18.2591C657.248 14.5492 666.523 12.6942 676.262 12.6942C686 12.6942 695.043 14.5492 703.391 18.2591C712.202 21.9691 719.854 27.0703 726.346 33.5627C732.839 40.0551 737.94 47.7069 741.65 56.5181C745.36 64.8655 747.215 73.9085 747.215 83.6471C747.215 93.3858 745.36 102.661 741.65 111.472C737.94 119.819 732.839 127.239 726.346 133.732C719.854 140.224 712.202 145.325 703.391 149.035C695.043 152.745 686 154.6 676.262 154.6C666.523 154.6 657.248 152.745 648.437 149.035C640.09 145.325 632.67 140.224 626.177 133.732C619.685 127.239 614.584 119.819 610.874 111.472C607.164 102.661 605.309 93.3858 605.309 83.6471Z" fill="#41DEAC"/>
</svg>
